<svg xmlns="http://www.w3.org/2000/svg" xmlns:xlink="http://www.w3.org/1999/xlink" width="128px" height="55px" viewBox="0 0 128 55" version="1.1">
    <defs>
        <linearGradient x1="29.8697725%" y1="12.9735046%" x2="75.2080393%" y2="65.7225144%" id="linearGradient-1">
            <stop stop-color="#0056FF" offset="0%"/>
            <stop stop-color="#ADC8FF" offset="100%"/>
        </linearGradient>
        <polygon id="path-2" points="17.9887882 -2.2923622e-15 30.7806662 -2.2923622e-15 37.2655113 10.8095897 24.3097128 10.8095897"/>
        <linearGradient x1="74.1012743%" y1="24.0972849%" x2="29.1930062%" y2="100%" id="linearGradient-3">
            <stop stop-color="#0056FF" offset="0%"/>
            <stop stop-color="#C8DBFF" offset="100%"/>
        </linearGradient>
        <linearGradient x1="5.19341621%" y1="34.7565443%" x2="40.3502498%" y2="100%" id="linearGradient-4">
            <stop stop-color="#C8DBFF" offset="0%"/>
            <stop stop-color="#0056FF" offset="100%"/>
        </linearGradient>
        <linearGradient x1="115.599273%" y1="59.4262999%" x2="9.90287172%" y2="59.4262999%" id="linearGradient-5">
            <stop stop-color="#0056FF" offset="0%"/>
            <stop stop-color="#C1D6FF" offset="100%"/>
        </linearGradient>
        <polygon id="path-6" points="36.5622794 31.3914803 49.0841209 31.3221939 42.6881819 42.4002852 30.0843801 42.6666667"/>
        <linearGradient x1="15.2426123%" y1="50%" x2="83.8650642%" y2="56.1494483%" id="linearGradient-7">
            <stop stop-color="#0056FF" offset="0%"/>
            <stop stop-color="#C8DBFF" offset="100%"/>
        </linearGradient>
        <linearGradient x1="37.1015746%" y1="112.893458%" x2="60.6848376%" y2="12.162423%" id="linearGradient-8">
            <stop stop-color="#0056FF" offset="0%"/>
            <stop stop-color="#ADC8FF" offset="100%"/>
        </linearGradient>
        <polygon id="path-9" points="6.09461705 20.4994843 12.5725163 31.7195349 6.35279312 42.6666667 2.49648611e-16 31.5830755"/>
    </defs>
    <g id="logo" stroke="none" stroke-width="1" fill="none" fill-rule="evenodd">
        <g id="编组-4" transform="translate(0.000000, 6.000000)">
            <g id="编组-3">
                <g id="路径-3">
                    <use fill="url(#linearGradient-1)" xlink:href="#path-2"/>
                    <use fill-opacity="0.1" fill="#FFFFFF" xlink:href="#path-2"/>
                </g>
                <polygon id="路径-4" fill="url(#linearGradient-3)" points="17.9887882 0 6.09461705 20.4994843 17.6389258 20.7284184 24.3097128 10.8095897"/>
                <polygon id="路径-5" fill="#F6F9FF" points="24.3097128 10.8095897 37.2655113 10.8095897 31.3093582 20.7284184 36.5622794 31.3914803 30.0843801 42.6666667 24.3934867 32.1686819 12.5725163 31.7195349 6.09461705 20.4994843 17.6389258 20.7284184"/>
                <polygon id="路径-7" fill="url(#linearGradient-4)" points="37.2653718 10.8095897 31.3093582 20.7284184 36.5622794 31.3914803 49.0841209 31.3221939"/>
                <g id="路径-8">
                    <use fill="url(#linearGradient-5)" xlink:href="#path-6"/>
                    <use fill-opacity="0.1" fill="#FFFFFF" xlink:href="#path-6"/>
                </g>
                <polygon id="路径-9" fill="url(#linearGradient-7)" points="12.5725163 31.7195349 24.3934867 32.1686819 30.0843801 42.6666667 6.35279312 42.6666667"/>
                <g id="路径-10">
                    <use fill="url(#linearGradient-8)" xlink:href="#path-9"/>
                    <use fill-opacity="0.1" fill="#FFFFFF" xlink:href="#path-9"/>
                </g>
            </g>
            <path d="M69.3071204,17.905482 C70.0201134,17.905482 70.7156312,17.8320857 71.3936736,17.685293 C72.071716,17.5385003 72.6763621,17.2973409 73.2076118,16.9618147 C73.7388616,16.6262886 74.1652594,16.1824155 74.4868053,15.6301953 C74.8083512,15.0779752 74.9691241,14.3964377 74.9691241,13.5855829 C74.9691241,13.0962739 74.8887377,12.6558958 74.7279647,12.2644486 C74.5671918,11.8730015 74.3504978,11.5304852 74.0778828,11.2368998 C73.8052678,10.9433144 73.4837219,10.702155 73.1132451,10.5134216 C72.7427683,10.3246881 72.3478261,10.1953707 71.9284184,10.1254694 L71.9284184,10.1254694 L71.9284184,10.0835287 C72.6553917,9.84586431 73.2425625,9.4579122 73.6899307,8.91967234 C74.1372989,8.38143247 74.360983,7.69989498 74.360983,6.87505986 C74.360983,6.12012602 74.2072002,5.49800462 73.8996345,5.00869565 C73.5920689,4.51938668 73.1936316,4.13143457 72.7043226,3.84483932 C72.2150137,3.55824407 71.6697837,3.35553035 71.0686326,3.23669817 C70.4674816,3.11786599 69.8803109,3.05844991 69.3071204,3.05844991 L69.3071204,3.05844991 L63.393472,3.05844991 L63.393472,17.905482 L69.3071204,17.905482 Z M68.7828607,8.9720983 L66.8535854,8.9720983 L66.8535854,5.91042218 L68.6150977,5.91042218 C69.3700315,5.91042218 69.9397269,6.02575929 70.324184,6.25643352 C70.708641,6.48710775 70.9008696,6.85408948 70.9008696,7.3573787 C70.9008696,7.88862844 70.7156312,8.29056081 70.3451544,8.5631758 C69.9746776,8.8357908 69.453913,8.9720983 68.7828607,8.9720983 L68.7828607,8.9720983 Z M68.8667423,15.011569 L66.8535854,15.011569 L66.8535854,11.6143667 L68.8457719,11.6143667 C69.614686,11.6143667 70.2298173,11.7331989 70.6911657,11.9708633 C71.1525142,12.2085276 71.3831884,12.6349254 71.3831884,13.2500567 C71.3831884,13.6135434 71.306297,13.9106238 71.1525142,14.141298 C70.9987314,14.3719723 70.7995127,14.5502205 70.5548582,14.6760428 C70.3102037,14.8018652 70.0375887,14.8892418 69.7370132,14.9381727 C69.4364377,14.9871035 69.1463474,15.011569 68.8667423,15.011569 L68.8667423,15.011569 Z M80.6730687,17.905482 L80.6730687,2.05187146 L77.1919849,2.05187146 L77.1919849,17.905482 L80.6730687,17.905482 Z M88.6627851,18.2410082 C89.4596597,18.2410082 90.2076034,18.1081958 90.9066163,17.8425709 C91.6056291,17.576946 92.2207603,17.2029742 92.7520101,16.7206553 C93.2832598,16.2383365 93.7026675,15.6511657 94.0102331,14.959143 C94.3177988,14.2671204 94.4715816,13.4947112 94.4715816,12.6419156 C94.4715816,11.7891199 94.3177988,11.0202058 94.0102331,10.3351733 C93.7026675,9.65014073 93.2832598,9.06996009 92.7520101,8.59463138 C92.2207603,8.11930267 91.6056291,7.75581601 90.9066163,7.50417139 C90.2076034,7.25252678 89.4596597,7.12670447 88.6627851,7.12670447 C87.8798908,7.12670447 87.1354421,7.25252678 86.4294392,7.50417139 C85.7234363,7.75581601 85.108305,8.11930267 84.5840454,8.59463138 C84.0597858,9.06996009 83.6438731,9.65014073 83.3363075,10.3351733 C83.0287419,11.0202058 82.874959,11.7891199 82.874959,12.6419156 C82.874959,13.4947112 83.0287419,14.2671204 83.3363075,14.959143 C83.6438731,15.6511657 84.0597858,16.2383365 84.5840454,16.7206553 C85.108305,17.2029742 85.7234363,17.576946 86.4294392,17.8425709 C87.1354421,18.1081958 87.8798908,18.2410082 88.6627851,18.2410082 Z M88.6837555,15.3470951 C88.2783281,15.3470951 87.9218315,15.2702037 87.6142659,15.1164209 C87.3067003,14.9626381 87.0480655,14.7564293 86.8383617,14.4977946 C86.6286578,14.2391598 86.47138,13.9490695 86.366528,13.6275236 C86.2616761,13.3059777 86.2092502,12.9774417 86.2092502,12.6419156 C86.2092502,12.3063894 86.2616761,11.9778534 86.366528,11.6563075 C86.47138,11.3347616 86.6251628,11.0516614 86.8278765,10.8070069 C87.0305902,10.5623524 87.2857299,10.3631338 87.5932955,10.209351 C87.9008612,10.0555682 88.2573577,9.97867675 88.6627851,9.97867675 C89.0682126,9.97867675 89.4247091,10.0555682 89.7322747,10.209351 C90.0398404,10.3631338 90.2984751,10.5623524 90.508179,10.8070069 C90.7178828,11.0516614 90.8786557,11.3347616 90.9904978,11.6563075 C91.1023398,11.9778534 91.1582609,12.3063894 91.1582609,12.6419156 C91.1582609,12.9774417 91.1058349,13.3059777 91.000983,13.6275236 C90.8961311,13.9490695 90.7388532,14.2391598 90.5291493,14.4977946 C90.3194455,14.7564293 90.0608108,14.9626381 89.7532451,15.1164209 C89.4456795,15.2702037 89.0891829,15.3470951 88.6837555,15.3470951 Z M101.978979,18.2410082 C102.747893,18.2410082 103.474867,18.122176 104.159899,17.8845117 C104.844932,17.6468473 105.404142,17.3183113 105.83753,16.8989036 L105.83753,16.8989036 L103.929225,14.5711909 C103.719521,14.8228355 103.443411,15.0150641 103.100895,15.1478765 C102.758378,15.2806889 102.412367,15.3470951 102.062861,15.3470951 C101.685394,15.3470951 101.346373,15.2771939 101.045797,15.1373913 C100.745222,14.9975887 100.486587,14.8053602 100.269893,14.5607057 C100.053199,14.3160512 99.8889309,14.0329511 99.7770888,13.7114052 C99.6652468,13.3898593 99.6093258,13.047343 99.6093258,12.6838563 C99.6093258,12.3203697 99.6687419,11.9778534 99.787574,11.6563075 C99.9064062,11.3347616 100.070674,11.0516614 100.280378,10.8070069 C100.490082,10.5623524 100.741727,10.3666289 101.035312,10.2198362 C101.328897,10.0730435 101.657433,9.99964713 102.02092,9.99964713 C102.370426,9.99964713 102.712943,10.0765385 103.048469,10.2303214 C103.383995,10.3841042 103.64962,10.5868179 103.845343,10.8384625 L103.845343,10.8384625 L105.83753,8.53172023 C105.627826,8.32201638 105.379677,8.12978786 105.093081,7.95503466 C104.806486,7.78028145 104.49193,7.63348876 104.149414,7.51465658 C103.806898,7.39582441 103.450401,7.30145768 103.079924,7.2315564 C102.709448,7.16165511 102.335476,7.12670447 101.958009,7.12670447 C101.147154,7.12670447 100.38523,7.25602184 99.6722369,7.51465658 C98.9592439,7.77329133 98.3406175,8.14376812 97.8163579,8.62608696 C97.2920983,9.1084058 96.8796807,9.6920815 96.5791052,10.3771141 C96.2785297,11.0621466 96.128242,11.8310607 96.128242,12.6838563 C96.128242,13.5506322 96.2785297,14.3265364 96.5791052,15.011569 C96.8796807,15.6966016 97.2920983,16.2802773 97.8163579,16.7625961 C98.3406175,17.2449149 98.9592439,17.6118967 99.6722369,17.8635413 C100.38523,18.1151859 101.154144,18.2410082 101.978979,18.2410082 Z M110.681689,17.905482 L110.681689,12.8935602 L110.7446,12.8935602 L114.162773,17.905482 L118.419761,17.905482 L114.225684,12.1805671 L118.251997,7.46223062 L114.078891,7.46223062 L110.7446,11.6982483 L110.681689,11.6982483 L110.681689,2.05187146 L107.221575,2.05187146 L107.221575,17.905482 L110.681689,17.905482 Z M122.991304,18.2410082 C123.522554,18.2410082 124.053804,18.178097 124.585054,18.0522747 C125.116303,17.9264524 125.595127,17.7237387 126.021525,17.4441336 C126.447923,17.1645285 126.793934,16.7975467 127.059559,16.3431884 C127.325184,15.8888301 127.457996,15.3331149 127.457996,14.6760428 C127.457996,14.1727536 127.360134,13.7393657 127.164411,13.375879 C126.968687,13.0123924 126.710053,12.7048267 126.388507,12.4531821 C126.066961,12.2015375 125.706969,11.9988238 125.308532,11.845041 C124.910095,11.6912581 124.515152,11.572426 124.123705,11.4885444 C123.452653,11.3347616 122.966839,11.194959 122.666263,11.0691367 C122.365688,10.9433144 122.2154,10.7336106 122.2154,10.4400252 C122.2154,10.1324596 122.351708,9.9157656 122.624323,9.78994329 C122.896938,9.66412098 123.194018,9.60120983 123.515564,9.60120983 C123.934972,9.60120983 124.333409,9.6920815 124.710876,9.87382483 C125.088343,10.0555682 125.416879,10.2792523 125.696484,10.5448771 L125.696484,10.5448771 L127.583819,8.59463138 C127.066549,8.10532241 126.433942,7.73834068 125.685999,7.4936862 C124.938055,7.24903172 124.172636,7.12670447 123.389742,7.12670447 C122.886452,7.12670447 122.379668,7.19311069 121.869389,7.32592313 C121.359109,7.45873556 120.894266,7.66494434 120.474858,7.94454946 C120.055451,8.22415459 119.712934,8.58414619 119.447309,9.02452426 C119.181685,9.46490233 119.048872,9.99964713 119.048872,10.6287587 C119.048872,11.1180676 119.139744,11.5374753 119.321487,11.8869817 C119.50323,12.2364881 119.7374,12.5300735 120.023995,12.7677379 C120.31059,13.0054022 120.635631,13.1941357 120.999118,13.3339382 C121.362604,13.4737408 121.726091,13.5855829 122.089578,13.6694644 C122.802571,13.8372275 123.32683,13.9980004 123.662357,14.1517832 C123.997883,14.3055661 124.165646,14.5432304 124.165646,14.8647763 C124.165646,15.2003025 124.029338,15.4344717 123.756723,15.5672842 C123.484108,15.7000966 123.207998,15.7665028 122.928393,15.7665028 C122.425104,15.7665028 121.949775,15.6546608 121.502407,15.4309767 C121.055039,15.2072926 120.677572,14.9276875 120.370006,14.5921613 L120.370006,14.5921613 L118.440731,16.6262886 C118.985961,17.1575383 119.667498,17.5594707 120.485343,17.8320857 C121.303188,18.1047007 122.138509,18.2410082 122.991304,18.2410082 Z M66.8745558,38.0693132 L66.7906742,28.3600252 L66.8535854,28.3600252 L72.8301449,38.0693132 L76.8983995,38.0693132 L76.8983995,23.222281 L73.4173157,23.222281 L73.5011972,32.9105986 L73.4382861,32.9105986 L67.4826969,23.222281 L63.393472,23.222281 L63.393472,38.0693132 L66.8745558,38.0693132 Z M84.9929679,38.4048393 C86.0554673,38.4048393 86.9886494,38.2126108 87.7925142,37.8281537 C88.5963789,37.4436967 89.2429658,36.8949716 89.7322747,36.1819786 L89.7322747,36.1819786 L87.3416509,34.6721109 C87.1039866,34.9936568 86.7964209,35.2557866 86.418954,35.4585003 C86.0414871,35.661214 85.5801386,35.7625709 85.0349086,35.7625709 C84.727343,35.7625709 84.4302625,35.71364 84.1436673,35.6157782 C83.857072,35.5179164 83.5984373,35.3816089 83.3677631,35.2068557 C83.1370888,35.0321025 82.9483554,34.8258937 82.8015627,34.5882294 C82.65477,34.350565 82.5673934,34.0849401 82.5394329,33.7913548 L82.5394329,33.7913548 L90.1097417,33.7913548 C90.1237219,33.6655325 90.130712,33.53272 90.130712,33.3929175 L90.130712,33.3929175 L90.130712,32.9735098 C90.130712,32.0787734 90.0013947,31.2818988 89.7427599,30.5828859 C89.4841252,29.8838731 89.1241336,29.2897122 88.6627851,28.8004033 C88.2014367,28.3110943 87.6492166,27.9371225 87.0061248,27.6784877 C86.363033,27.419853 85.65703,27.2905356 84.8881159,27.2905356 C84.0912413,27.2905356 83.3502878,27.423348 82.6652552,27.6889729 C81.9802226,27.9545978 81.3860618,28.3285696 80.8827725,28.8108885 C80.3794833,29.2932073 79.981046,29.8803781 79.6874606,30.5724008 C79.3938752,31.2644234 79.2470825,32.0368326 79.2470825,32.8896282 C79.2470825,33.7703844 79.3973703,34.5532787 79.6979458,35.2383113 C79.9985213,35.9233438 80.4109389,36.5000294 80.9351985,36.968368 C81.4594581,37.4367066 82.0710943,37.7932031 82.7701071,38.0378576 C83.4691199,38.2825121 84.2100735,38.4048393 84.9929679,38.4048393 Z M86.964184,31.6523756 L82.5394329,31.6523756 C82.5534131,31.3867507 82.6233144,31.131611 82.7491367,30.8869565 C82.874959,30.642302 83.0427221,30.4291031 83.252426,30.2473598 C83.4621298,30.0656165 83.7067843,29.9223188 83.9863894,29.8174669 C84.2659945,29.712615 84.5735602,29.660189 84.9090863,29.660189 C85.5941189,29.660189 86.1078933,29.8559126 86.4504096,30.2473598 C86.7929259,30.638807 86.964184,31.1071456 86.964184,31.6523756 L86.964184,31.6523756 Z M94.3877001,38.0693132 L96.6944423,34.8608444 L98.9382735,38.0693132 L102.985558,38.0693132 L98.8543919,32.5960428 L102.608091,27.6260618 L98.7285696,27.6260618 L96.7573535,30.4151229 L94.8071078,27.6260618 L90.8017643,27.6260618 L94.5764335,32.5960428 L90.403327,38.0693132 L94.3877001,38.0693132 Z M108.353976,38.3209578 C108.717463,38.3209578 109.080949,38.2895022 109.444436,38.2265911 C109.807923,38.1636799 110.108498,38.0902836 110.346163,38.006402 L110.346163,38.006402 L110.304222,35.4899559 C110.178399,35.5458769 110.021122,35.5878177 109.832388,35.6157782 C109.643655,35.6437387 109.465406,35.657719 109.297643,35.657719 C108.808334,35.657719 108.469313,35.5353917 108.28058,35.2907372 C108.091846,35.0460828 107.99748,34.679101 107.99748,34.1897921 L107.99748,34.1897921 L107.99748,30.205419 L110.451014,30.205419 L110.451014,27.6260618 L107.99748,27.6260618 L107.99748,24.8789414 L104.621248,24.8789414 L104.621248,27.6260618 L102.964587,27.6260618 L102.964587,30.205419 L104.642218,30.205419 L104.642218,34.6091997 C104.642218,35.16841 104.705129,35.6751943 104.830951,36.1295526 C104.956774,36.5839109 105.162983,36.9753581 105.449578,37.3038941 C105.736173,37.6324302 106.117135,37.8840748 106.592464,38.058828 C107.067792,38.2335812 107.654963,38.3209578 108.353976,38.3209578 Z" id="BlocksNext" fill="#242934" fill-rule="nonzero"/>
        </g>
    </g>
</svg>