<?xml version="1.0" encoding="UTF-8"?>
<svg width="24px" height="24px" viewBox="0 0 24 24" version="1.1" xmlns="http://www.w3.org/2000/svg" xmlns:xlink="http://www.w3.org/1999/xlink">
    <title>编组 16</title>
    <g id="抓潜拓客" stroke="none" stroke-width="1" fill="none" fill-rule="evenodd">
        <g id="菜单图标" transform="translate(-200.000000, -456.000000)" fill="#9CA6B9" fill-rule="nonzero">
            <g id="编组-16" transform="translate(200.000000, 456.000000)">
                <path d="M11,4 C14.8659932,4 18,7.13400675 18,11 C18,14.8659932 14.8659932,18 11,18 C7.13400675,18 4,14.8659932 4,11 C4,7.13400675 7.13400675,4 11,4 Z M11,5.6 C8.01766235,5.6 5.6,8.01766235 5.6,11 C5.6,13.9823376 8.01766235,16.4 11,16.4 C13.9823376,16.4 16.4,13.9823376 16.4,11 C16.4,8.01766235 13.9823376,5.6 11,5.6 Z" id="椭圆形"></path>
                <polygon id="路径-5" points="15.5665033 14.4220936 20.0665033 18.9351336 18.9334967 20.0648664 14.4334967 15.5518264"></polygon>
                <path d="M9.42406643,7.3698722 C11.4001889,6.69681945 13.5445891,7.6823839 14.3343673,9.58930703 L14.4359786,9.85975398 L12.9280031,10.394553 L12.9007979,10.3178423 C12.491128,9.16269401 11.2659137,8.52794861 10.0986468,8.8364764 L9.93991529,8.88443482 L9.42406643,7.3698722 Z" id="路径-7"></path>
            </g>
        </g>
    </g>
</svg>