<?xml version="1.0" encoding="UTF-8"?>
<svg width="24px" height="24px" viewBox="0 0 24 24" version="1.1" xmlns="http://www.w3.org/2000/svg" xmlns:xlink="http://www.w3.org/1999/xlink">
    <title>编组 16</title>
    <g id="抓潜拓客" stroke="none" stroke-width="1" fill="none" fill-rule="evenodd">
        <g id="菜单图标" transform="translate(-200.000000, -804.000000)" fill="#9CA6B9" fill-rule="nonzero">
            <g id="编组-16" transform="translate(200.000000, 804.000000)">
                <path d="M12,9 C13.6568542,9 15,10.3431458 15,12 C15,13.6568542 13.6568542,15 12,15 C10.3431458,15 9,13.6568542 9,12 C9,10.3431458 10.3431458,9 12,9 Z M12,10.6 C11.2268014,10.6 10.6,11.2268014 10.6,12 C10.6,12.7731986 11.2268014,13.4 12,13.4 C12.7731986,13.4 13.4,12.7731986 13.4,12 C13.4,11.2268014 12.7731986,10.6 12,10.6 Z" id="椭圆形"></path>
                <path d="M12,4 L18.9282032,8 L18.9282032,16 L12,20 L5.07179677,16 L5.07179677,8 L12,4 Z M12,5.847 L6.671,8.923 L6.671,15.076 L12,18.152 L17.328,15.076 L17.328,8.923 L12,5.847 Z" id="多边形" transform="translate(12.000000, 12.000000) rotate(90.000000) translate(-12.000000, -12.000000) "></path>
            </g>
        </g>
    </g>
</svg>