<?xml version="1.0" encoding="UTF-8"?>
<svg width="24px" height="24px" viewBox="0 0 24 24" version="1.1" xmlns="http://www.w3.org/2000/svg" xmlns:xlink="http://www.w3.org/1999/xlink">
    <title>编组 16</title>
    <g id="抓潜拓客" stroke="none" stroke-width="1" fill="none" fill-rule="evenodd">
        <g id="菜单图标" transform="translate(-200.000000, -674.000000)" fill="#9CA6B9" fill-rule="nonzero">
            <g id="编组-16" transform="translate(200.000000, 674.000000)">
                <path d="M12.5,4 C17.1944204,4 21,7.80557963 21,12.5 C21,17.1944204 17.1944204,21 12.5,21 C7.80557963,21 4,17.1944204 4,12.5 C4,7.80557963 7.80557963,4 12.5,4 Z M12.5,5.6 C8.68923523,5.6 5.6,8.68923523 5.6,12.5 C5.6,16.3107648 8.68923523,19.4 12.5,19.4 C16.3107648,19.4 19.4,16.3107648 19.4,12.5 C19.4,8.68923523 16.3107648,5.6 12.5,5.6 Z" id="椭圆形"></path>
                <polygon id="路径-8" points="13.3 11.2250897 13.3 16.4361333 11.7 16.4361333 11.7 11.2250897"></polygon>
                <polygon id="路径-8" points="13.3 8.22508968 13.3 10.2250897 11.7 10.2250897 11.7 8.22508968"></polygon>
            </g>
        </g>
    </g>
</svg>